<svg width="904" height="1213" viewBox="0 0 904 1213" fill="none" xmlns="http://www.w3.org/2000/svg">
<path d="M181.922 376.96C204.013 247.506 316.748 148.964 452.499 148.964C583.642 148.964 693.306 240.93 720.516 363.887L718.563 375.232L710.394 374.252C687.358 252.8 580.654 160.964 452.499 160.964C318.722 160.964 208.318 261.036 192.061 390.405L181.922 376.96Z" fill="#2A2A2A"/>
<path fill-rule="evenodd" clip-rule="evenodd" d="M447.018 448.592C444.122 450.998 441.163 453.529 440.445 454.217C439.721 454.904 437.882 456.404 436.356 457.55C434.83 458.696 432.278 460.759 430.679 462.134C424.773 467.227 405.268 480.295 393.523 487.024C389.018 489.608 385.184 491.717 385.007 491.717C384.825 491.717 381.945 493.05 378.611 494.686C375.278 496.316 369.549 498.795 365.882 500.191C362.215 501.587 358.465 503.066 357.549 503.467C350.08 506.764 326.08 513.243 313.028 515.488C309.096 516.165 304.195 517.066 302.132 517.498C300.226 517.875 289.26 519.633 284.015 520.464C284.015 520.464 283.486 584.858 288.689 606.717C292.169 621.332 293.028 624.675 293.721 626.3C294.117 627.217 295.45 631.154 296.684 635.05C299.023 642.404 302.215 651.061 304.273 655.592C304.929 657.035 305.465 658.483 305.465 658.8C305.465 660.123 318.132 686.399 320.533 690.05C321.283 691.196 323.538 694.946 325.538 698.384C328.684 703.785 338.424 718.592 340.57 721.243C342.34 723.425 352.648 736.462 353.783 737.962C355.663 740.425 382.919 767.602 386.299 770.378C409.361 789.326 427.325 801.561 447.507 812.082L452.014 814.429L456.522 812.081C476.704 801.561 494.668 789.326 517.73 770.378C521.11 767.602 548.366 740.425 550.246 737.962C551.381 736.462 561.688 723.425 563.459 721.243C565.605 718.592 575.345 703.785 578.491 698.384C580.491 694.946 582.746 691.196 583.496 690.05C585.897 686.399 598.564 660.123 598.564 658.8C598.564 658.483 599.1 657.035 599.756 655.592C601.813 651.061 605.006 642.404 607.345 635.05C608.579 631.154 609.912 627.217 610.308 626.3C611.001 624.675 611.86 621.331 615.34 606.717C620.543 584.858 620.014 520.464 620.014 520.464C614.769 519.633 603.803 517.875 601.897 517.498C599.834 517.066 594.933 516.165 591.001 515.488C577.949 513.243 553.949 506.764 546.48 503.467C545.563 503.066 541.813 501.587 538.147 500.191C534.48 498.795 528.751 496.316 525.418 494.686C522.084 493.05 519.204 491.717 519.022 491.717C518.845 491.717 515.011 489.607 510.506 487.024C498.761 480.295 479.256 467.227 473.35 462.134C471.751 460.759 469.199 458.696 467.673 457.55C466.147 456.404 464.308 454.904 463.584 454.217C462.866 453.529 459.907 450.998 457.011 448.592C454.978 446.9 453.074 445.424 452.014 444.697C450.955 445.424 449.051 446.9 447.018 448.592ZM342.679 572.587C389.556 564.285 435.101 536.938 452.014 524.302C468.928 536.938 514.473 564.285 561.35 572.587C561.965 603.266 549.828 673.21 496.355 707.545C496.355 665.21 466.795 656.127 452.014 656.878C437.234 656.127 407.674 665.21 407.674 707.545C354.201 673.21 342.064 603.266 342.679 572.587Z" fill="#FAA329"/>
<circle cx="452.5" cy="620.464" r="26.5" fill="#FAA329"/>
<path fill-rule="evenodd" clip-rule="evenodd" d="M160.117 596.28C167.471 596.613 171.154 597.223 175.951 598.895C184.604 601.738 204.821 611.83 216.456 629.447C220.602 635.348 226.232 646.947 227.143 651.468L227.649 653.968L220.341 654.02C212.268 654.082 209.201 655.171 204.477 659.655C197.43 666.348 199.362 677.202 210.117 691.348C225.504 710.554 285.5 765.965 389.5 802.965C326.5 762.965 279.333 693.965 269 659.965C150.617 569.465 151.367 465.464 150 421.889H34C34 520.56 74.6662 606.053 94.9996 636.465C99.578 622.199 119.011 594.188 160.117 596.28Z" fill="#2EA5CA"/>
<path fill-rule="evenodd" clip-rule="evenodd" d="M151.367 614.082C133.034 618.879 120.8 630.421 114.419 648.942C111.758 656.66 111.445 672.082 113.794 679.712C116.711 689.197 119.227 693.645 127.721 704.384C197 779.965 344 838.965 450 838.965C390.288 826.59 201.261 746.777 179.086 679.895C177.602 676.952 176.81 668.093 177.596 663.264C178.482 657.832 182.846 650.582 186.555 648.4C192.742 644.754 200.805 643.421 205.617 645.249C209.05 646.556 209.914 645.103 207.971 641.28C206.029 637.468 191.524 622.77 188.034 621.082C186.659 620.415 184.971 619.452 184.284 618.931C183.596 618.415 180.596 617.113 177.617 616.04C173.346 614.504 170.175 614.046 162.617 613.869C157.346 613.749 152.284 613.843 151.367 614.082Z" fill="#2EA5CA"/>
<path fill-rule="evenodd" clip-rule="evenodd" d="M759 421.964H875C875 480.464 860.5 558.465 816.82 631.965H773L758 589.965L737.5 649.965L717 588.965L689.003 669.15L680.5 649.384H653C727.201 583.465 754.951 509.964 759 421.964Z" fill="#52666C"/>
<path fill-rule="evenodd" clip-rule="evenodd" d="M674.149 659.614H640.406C616 717.465 563 802.965 454 838.965C547 839.965 705.5 802.965 810.96 641.635H765.5L758 619.965L737.5 679.965L717 620.965L688.995 699.893L674.149 659.614Z" fill="#52666C"/>
<path fill-rule="evenodd" clip-rule="evenodd" d="M105.5 240.464C130.856 199.11 128.694 184.909 125.859 166.285C123.999 154.06 121.848 139.93 127 114.965C87.4996 148.465 16.0983 230.229 88.4996 258.464C88.8048 259.216 89.1074 260.011 89.4266 260.851C91.3734 265.97 93.9392 272.717 101.5 280.964C93.0558 292.006 81.7839 301.632 72.4871 309.571C66.6496 314.556 61.5905 318.876 58.4996 322.464C57.1832 323.993 56.0969 325.221 55.174 326.265C50.4791 331.574 50.014 332.1 44.9996 342.964C40.4818 352.753 37.0154 368.681 35.9205 383.717C35.4481 390.205 35.0833 395.214 34.5 396.964H150.74C152 376.964 155.5 351.964 166.6 318.964C173.464 300.871 178.067 281.784 182.222 264.55C189.206 235.587 194.928 211.86 208 206.884C258.207 196.697 299.275 164.144 310.5 149.464C328.933 125.358 392.7 78.5645 465.5 112.965C422.5 -11.0355 155.5 1.46454 137 212.964C149.763 184.798 216 91.4645 308 76.9645C233.5 97.9645 195 138.963 116 264.964C73.9996 231.964 83.9996 196.964 94.9996 165.964C88.4996 212.964 95.3697 231.522 105.5 240.464Z" fill="#92C005"/>
<path d="M798 173.464C800.5 178.964 799.008 191.699 798 193.464C775.833 138.964 701.376 47.4645 551.5 8.96448C540.3 5.916 524.666 11.1942 518.5 11.9644C505.242 11.9644 499.5 1.46454 499.5 1.46454C492.5 25.4644 517.5 35.4645 537 41.9645C509.5 39.9645 493 23.4647 480 13.9645C447.2 -7.23569 396 -0.535547 357.5 9.46454C428 11.9644 473.5 58.7979 484 75.4646C513.6 118.665 576 120.798 603.5 116.464C627.5 110.964 642.836 100.219 661.5 103.464C732.5 123.965 651.754 191.965 646.636 122.465C638.136 117.464 614 128.464 603.5 141.964C633.983 130.29 646.876 144.165 646.636 165.305C648.746 200.378 683 226.628 699.864 235.368C711.898 239.895 721.98 243.687 729.117 259.465C729.117 259.465 712.538 248.464 699.617 253.965C700.07 254.192 700.52 254.418 700.967 254.64C701.236 254.774 701.503 254.907 701.769 255.04L701.783 255.047L701.794 255.052C712.748 260.504 721.74 264.979 723.617 280.465C724.039 283.944 724.031 287.924 724.023 292.024C724.002 303.138 723.979 315.137 732.5 320.464C735.453 323.576 737.951 325.693 740.085 327.502C744.729 331.438 747.642 333.907 749.748 341.965C754.545 360.324 757.563 378.723 758.5 396.964H802.065C803.401 390.563 802.741 376.403 802.301 366.956L802.252 365.92C802.175 364.251 802.108 362.756 802.065 361.514C801.939 357.896 800.765 356.566 798.893 354.446C798.033 353.473 797.026 352.332 795.906 350.726C790.907 346.5 788.894 338.841 789.598 333.22C790.442 326.478 786.456 323.706 781.6 320.329L781.269 320.099L781.103 319.983C780.948 319.875 780.792 319.766 780.636 319.656C787.738 318.586 794.77 324.861 794.77 324.861C793.015 317.482 788.404 314.893 782.901 311.803C776.453 308.182 768.779 303.873 763.037 290.363C761.512 286.774 762.941 281.779 764.325 276.94C766.88 268.009 769.282 259.612 752.677 261.586C759.488 256.891 769.365 258.368 772.544 261.217C761.965 298.182 830.882 270.567 772.032 246.623C768.978 245.38 762.633 244.215 755.626 242.929C746.872 241.322 737.083 239.525 731.386 237.149C678.095 217.894 658.385 180.836 659 167.964C666.882 184.964 692.322 189.132 692.5 187.964L692.92 185.65L695.624 170.751L695.615 170.722C695.619 170.732 695.623 170.741 695.624 170.751C695.626 170.76 693.773 180.956 692.92 185.65L692.5 187.964C692.535 203.971 713.94 200.343 723.081 202.752C723.081 202.752 715.648 199.075 716.009 192.901C716.009 192.901 718.443 196.051 725.079 197.343C777.943 198.446 810.696 232.314 820.465 249.11C821.173 248.461 821.103 247.717 821 246.623C820.965 246.26 820.498 244.411 819.817 241.723C818.482 236.445 816.324 227.919 815 220.964C857 322.464 858.924 394.161 858.162 396.964L874.461 396.964C874.461 391.008 872.063 314.793 833.325 235.464C832.372 233.513 831.076 228.361 829.403 221.714L829.401 221.708C825.635 206.743 819.961 184.195 812 173.464C809.863 170.584 807.646 168.533 805.454 166.505C800.172 161.619 795.033 156.865 791.5 140.964C791.5 152.464 796.181 169.464 798 173.464Z" fill="#F97027"/>
<path fill-rule="evenodd" clip-rule="evenodd" d="M412.224 164.802C403.706 166.09 400.356 167.222 397.74 169.693C395.243 172.049 394.499 172.234 391.297 171.296C385.565 169.615 376.856 170.831 364.251 175.072C356.116 177.81 355.382 178.298 355.838 180.663C356.342 183.276 355.42 183.809 348.682 184.794C340.594 185.977 338.716 187.397 341.673 190.099C342.442 190.804 343.232 192.146 343.424 193.081C343.701 194.432 344.347 195.029 346.567 195.987C348.964 197.022 350.367 197.18 356.401 197.097C364.822 196.98 368.536 197.634 372.173 199.879C374.417 201.264 375.278 202.333 377.086 205.988C378.866 209.588 379.551 210.45 380.743 210.588C384.605 211.033 386.307 212.444 387.679 216.34C388.352 218.248 388.321 218.302 384.551 221.9C380.176 226.074 380.056 226.593 382.192 232.114C387.113 244.835 394.101 252.935 400.156 252.935C401.279 252.935 403.004 253.553 404.273 254.406C407.206 256.385 408.323 255.737 411.021 250.487C412.183 248.224 414.162 244.899 415.415 243.097C416.67 241.294 417.704 239.37 417.714 238.816C417.764 236.148 421.474 234.157 427.271 233.689C431.469 233.349 431.489 233.341 435.293 229.806C439.79 225.625 440.525 225.212 444.383 224.678C455.229 223.177 465.201 219.34 467.863 215.642C469.266 213.693 468.948 210.478 467.147 208.394C465.602 206.61 465.592 206.55 466.707 205.737C467.333 205.28 469.095 204.283 470.621 203.52C474.535 201.567 475.411 200.046 475.022 195.881C474.85 194.026 474.033 191.071 473.206 189.316L471.703 186.124L474.76 183.826C476.441 182.561 479.645 180.778 481.879 179.861C494.943 174.507 489.767 169.061 474.882 172.5C472.087 173.146 468.965 173.595 467.943 173.499C466.324 173.345 466.062 173.088 465.904 171.478C465.671 169.142 463.134 166.622 460.142 165.751C455.735 164.469 447.146 163.917 432.359 163.968C422.841 163.999 415.519 164.303 412.224 164.802ZM352.003 169.909C341.439 173.623 311.81 188.832 305.328 193.869L303.858 195.01L311.654 194.955C315.941 194.925 319.881 194.863 320.408 194.813C320.935 194.764 322.782 193.621 324.513 192.271L331.471 186.849C333.696 185.117 336.137 183.729 337.336 183.516C338.467 183.317 341.107 182.333 343.203 181.328C345.3 180.325 349.209 178.656 351.888 177.62C354.568 176.586 357.302 175.311 357.964 174.79L359.166 173.841L357.574 172.001C355.343 169.422 354.398 169.066 352.003 169.909ZM300.093 197.314C295.499 200.333 292.122 202.854 292.361 203.086C292.782 203.497 313.491 202.129 315.748 201.541C317.141 201.177 318.055 200.539 318.312 199.748C318.869 198.04 317.444 197.18 313.397 196.783C302.078 195.676 302.615 195.655 300.093 197.314ZM380.974 214.365C380.799 214.809 380.741 215.901 380.846 216.79C380.998 218.084 381.366 218.445 382.685 218.591C385.071 218.858 386.105 217.839 385.366 215.95C385.041 215.118 384.462 214.242 384.078 214.005C382.949 213.306 381.317 213.495 380.974 214.365ZM481.337 229.567C474.992 230.819 473.227 230.89 470.68 229.995C468.243 229.137 466.058 229.82 464.431 231.947L463.241 233.501L464.81 234.914C465.672 235.694 466.379 236.856 466.379 237.499C466.379 239.525 468.363 240.783 472.762 241.548C476.605 242.216 477.304 242.174 481.757 240.985C487.69 239.404 491.98 237.348 492.468 235.855C492.67 235.236 492.435 233.977 491.945 233.056C491.067 231.403 487.773 228.336 487.01 228.46C486.793 228.495 484.239 228.993 481.337 229.567ZM511.728 254.048C509.151 255.576 508.434 257.148 508.742 260.577C509.147 265.072 511.272 269.231 514.11 271.087C515.436 271.952 516.609 273.108 516.717 273.655C516.825 274.202 516.102 275.842 515.108 277.3C513.18 280.134 512.926 281.43 513.941 283.273C514.463 284.226 514.354 284.584 513.32 285.287C512.55 285.812 512.133 286.621 512.243 287.375C512.459 288.843 513.471 288.861 522.687 287.552C528.255 286.762 528.997 286.513 530.428 284.955C531.298 284.007 532.187 282.313 532.404 281.188C532.763 279.326 532.557 278.886 530.045 276.17C528.531 274.533 525.846 271.396 524.077 269.2C520.925 265.283 520.866 265.144 521.15 262.162C521.427 259.258 521.361 259.074 519.701 258.166C518.745 257.642 517.816 256.572 517.637 255.788C517.459 255.003 517.209 254.041 517.086 253.648C516.747 252.577 513.841 252.793 511.728 254.048ZM502.041 269.199C500.525 270.281 499.007 271.67 498.669 272.285C498.33 272.901 498.053 275.604 498.053 278.293V283.181L501.133 283.18C505.385 283.179 508.002 281.781 509.676 278.616C510.707 276.666 510.98 275.36 510.812 273.194C510.336 267.057 507.104 265.585 502.041 269.199Z" fill="#2A2A2A"/>
<path fill-rule="evenodd" clip-rule="evenodd" d="M302.197 208.742C303.385 206.382 305.493 205.091 309.184 204.465C313.564 203.722 321.923 204.088 324.435 205.132C325.563 205.602 327.343 206.791 328.389 207.774C329.433 208.758 330.711 209.562 331.225 209.562C331.741 209.562 334.301 210.477 336.915 211.595C339.529 212.713 343.115 213.994 344.885 214.443C348.304 215.31 350.83 217.126 350.83 218.715C350.83 220.436 352.971 222.392 356.027 223.461C360.279 224.948 363.733 227.512 363.733 229.182C363.733 230.814 359.043 235.243 357.315 235.243C356.673 235.243 354.9 234.473 353.373 233.531C351.847 232.59 350.255 231.819 349.834 231.819C348.364 231.819 349.086 233.531 351.094 234.81C353.097 236.086 354.348 237.919 354.348 239.578C354.348 241.251 352.547 243.792 351.111 244.142C350.311 244.339 349.656 244.85 349.656 245.281C349.656 247.419 341.964 246.653 336.495 243.969C334.863 243.168 332.659 241.774 331.598 240.875C330.842 240.232 330.392 239.82 329.868 239.554C328.869 239.047 327.603 239.066 323.431 239.014C319.666 238.966 318.388 238.733 317.575 237.944C315.745 236.166 317.947 234.178 323.123 232.941C326.108 232.226 329.21 229.723 330.571 226.931C331.823 224.367 331.318 223.707 326.873 222.104C325.049 221.446 322.566 220.246 321.358 219.439C318.961 217.839 316.226 217.81 312.919 219.35C311.403 220.057 311.229 220.429 311.162 223.118C311.042 227.8 309.222 229.65 303.334 231.076L301.296 231.568L303.627 232.968C307.129 235.071 310.357 238.098 310.357 239.278C310.357 240.7 308.064 241.048 300.106 240.836L293.667 240.665L293.091 238.952C292.774 238.012 292.452 237.147 292.375 237.033C292.166 236.724 285.001 240.688 278.872 244.506C274.87 246.998 273.025 248.559 271.687 250.589C269.496 253.91 269.453 254.838 271.383 257.07C272.206 258.021 273.031 259.539 273.217 260.441C273.461 261.628 273.979 262.164 275.093 262.384C278.843 263.125 281.853 264.095 289.632 267.069C298.379 270.413 299.209 271.057 299.216 274.506C299.226 278.815 301.384 282.04 304.257 282.04C306.299 282.04 306.939 280.65 307.192 275.648L307.432 270.934L310.985 267.445L314.538 263.958L313.228 261.333C311.99 258.857 311.958 258.468 312.642 254.537C314.23 245.422 314.516 244.743 317.107 243.901C320.111 242.925 325.752 243.739 331.272 245.943C336.379 247.984 338.511 249.92 338.511 252.515C338.511 255.257 340.428 257.501 342.769 257.501C344.246 257.501 345.216 256.848 347.858 254.073C349.654 252.188 351.553 250.648 352.081 250.649C353.675 250.653 356.932 254.714 358.729 258.939C360.868 263.966 362.415 265.619 367.593 268.396C369.876 269.62 372.779 271.492 374.041 272.553L376.337 274.485L376.447 280.117C376.507 283.215 376.574 286.067 376.597 286.456C376.619 286.844 377.679 287.801 378.951 288.582C382.858 290.983 385.826 297.458 384.296 300.242C383.48 301.724 382.916 301.736 379.902 300.335C378.59 299.727 375.273 298.936 372.532 298.582C363.535 297.413 362.907 296.38 366.631 288.888C367.933 286.266 368.892 284.017 368.76 283.887C368.628 283.759 366.19 284.761 363.34 286.115L358.161 288.574L349.947 288.416L341.733 288.258L339.714 290.285L337.695 292.312H348.228L348.004 296.167C347.75 300.548 348.16 301.162 352.394 302.759C354.716 303.633 354.911 303.623 356.299 302.561C359.228 300.319 361.884 301.935 361.085 305.474C360.673 307.302 358.351 308.867 352.589 311.199C350.814 311.917 348.366 313.106 347.146 313.839C343.756 315.883 341.784 316.09 340.655 314.521C340.102 313.753 339.856 312.675 340.057 311.896C340.274 311.055 340.138 310.574 339.684 310.574C338.557 310.574 332.473 313.881 330.104 315.78C327.786 317.64 327.461 318.853 328.815 320.595C330.299 322.504 329.834 322.978 325.461 324.005C318.001 325.758 316.433 326.746 314.168 331.122C312.864 333.64 311.742 335.076 310.912 335.287C309.709 335.594 309.666 335.823 310.063 339.663L310.48 343.717L307.601 346.407C306.018 347.885 302.416 350.861 299.596 353.019C296.776 355.175 293.841 357.744 293.074 358.725L291.677 360.51L292.878 365.931C294.271 372.218 294.574 380.991 293.462 382.909C293.054 383.615 292.25 384.193 291.677 384.193C289.234 384.193 285.219 377.864 283.989 372.067C283.606 370.262 282.903 368.407 282.427 367.943C280.845 366.403 269.237 363.682 267.314 364.4C266.741 364.613 266.366 365.412 266.366 366.414C266.366 369.266 265.419 369.458 259.344 367.842C254.674 366.601 253.517 366.476 251.657 367.018C248.954 367.806 243.802 372.225 242.356 374.998C239.485 380.497 238.784 393.576 241.059 399.16C243.132 404.245 246.232 405.894 252.111 405.037C255.151 404.593 258.74 401.735 258.74 399.759C258.74 399.153 259.413 398.044 260.236 397.292C261.44 396.192 262.508 395.884 265.732 395.706C269.321 395.509 269.824 395.614 270.633 396.738C271.454 397.877 271.411 398.425 270.158 402.932C269.401 405.652 268.239 409.394 267.575 411.248C266.91 413.102 266.366 414.835 266.366 415.1C266.366 415.364 268.69 415.58 271.53 415.58C276.607 415.58 276.726 415.613 278.577 417.472L280.461 419.363L280.406 427.149L280.352 434.936L282.158 437.49C284.297 440.514 284.74 440.683 290.251 440.571C293.664 440.502 294.725 440.695 295.71 441.564C297.371 443.024 298.459 442.293 300.728 438.191C301.723 436.393 303.042 434.454 303.66 433.884C305.317 432.356 315.656 427.924 316.224 428.5C316.492 428.771 316.797 429.631 316.905 430.414C317.167 432.3 318.905 432.558 320.645 430.968L322.031 429.702L327.643 432.393C333.582 435.242 334.863 435.394 342.1 434.112C344.957 433.605 347.488 434.944 349.452 437.996C351.403 441.029 358.559 447.784 361.758 449.609C363.113 450.384 366.312 451.357 369.013 451.819C377.217 453.223 379.454 455.106 384.265 464.66L386.706 469.511C363.672 487.088 312.649 498.099 290.017 501.407C289.106 500.117 287.603 498.003 286.677 496.709C284.341 493.444 284.022 490.065 285.738 486.722C286.956 484.35 287.005 483.915 286.32 481.534C284.917 476.659 286.781 471.095 291.499 466.073C296.509 460.739 297.123 453.042 292.966 447.682C291.185 445.385 290.404 445.359 288.747 447.54C287.964 448.571 286.915 449.252 286.109 449.252C285.375 449.252 282.15 447.442 278.942 445.231C271.14 439.851 271.058 439.776 271.058 438.106C271.058 435.869 268.996 432.442 266.535 430.587C265.312 429.665 262.243 427.969 259.714 426.816C256.445 425.326 253.947 423.622 251.078 420.927L247.04 417.134L244.239 417.598C237.786 418.665 235.663 417.902 223.775 410.238C214.335 404.151 213.985 403.732 213.549 397.958C213.327 395.027 212.75 392.63 211.809 390.737C210.244 387.586 205.538 380.069 202.995 376.652C202.088 375.433 200.501 372.457 199.471 370.04C196.016 361.933 194.697 359.87 193.452 360.619C192.553 361.16 193.538 365.095 195.741 369.758C199.08 376.819 203.686 388.232 204.03 390.295C204.327 392.079 204.249 392.183 202.588 392.183C199.868 392.183 195.188 396.333 192 390.294C190.383 387.234 191.29 378.148 190.456 377.388C189.228 376.267 188.941 375.477 188.941 373.218C188.941 372.187 188.45 370.789 188.02 369.566C187.811 368.97 187.616 368.415 187.5 367.964C192.5 337.964 214 274.964 266 225.586H267.399C270.472 226.274 271.234 225.897 272.702 222.955C274.158 220.04 274.332 218.7 273.258 218.677C272.403 218.658 277.883 213.557 278.759 213.557C279.86 213.557 283.242 216.443 284.762 218.678C286.015 220.52 286.659 220.936 288.491 221.083C290.398 221.237 290.871 221.572 291.897 223.501C292.551 224.735 293.429 225.853 293.846 225.988C294.862 226.318 297.183 224.129 298.1 221.973C298.941 219.998 298.654 219.668 293.081 216.214C291.483 215.224 289.674 213.574 289.061 212.548C288.032 210.825 288.018 210.577 288.876 209.305C290.593 206.755 293.828 204.807 296.429 204.758C298.959 204.709 299.328 205.062 300.829 208.976L301.37 210.387L302.197 208.742Z" fill="#2A2A2A"/>
<path fill-rule="evenodd" clip-rule="evenodd" d="M584.702 212.432C580.246 213.112 574.497 214.864 570.979 216.613C567.567 218.309 565.805 220.076 560.092 227.542C554.745 234.53 553.334 235.757 545.671 240.095L539.619 243.518L539.996 247.997C540.205 250.459 540.728 253.618 541.161 255.015C543.004 260.973 545.102 261.902 550.591 259.191C552.754 258.124 554.686 257.526 555.33 257.728C556.431 258.075 556.782 258.533 561.654 265.988L564.402 270.196L567.074 269.903C571.057 269.466 572.665 268.006 573.799 263.796C574.327 261.833 575.319 259.55 576.003 258.721C578.479 255.724 578.554 254.871 576.683 251.043C574.417 246.407 574.72 245.218 579.31 240.752C581.338 238.778 583.404 236.218 583.9 235.062C584.747 233.089 584.961 232.961 587.4 232.961C590.81 232.961 591.72 233.966 590.459 236.339C589.948 237.3 588.881 238.5 588.087 239.007C586.012 240.329 584.276 243.339 584.276 245.615C584.276 247.651 586.65 252.915 588.095 254.082C588.719 254.586 589.673 254.594 591.966 254.116C597.102 253.044 605.154 252.671 605.668 253.48C606.575 254.908 604.363 255.889 598.622 256.605C593.571 257.235 592.713 257.507 591.509 258.869C590.757 259.721 590.141 261.045 590.141 261.813C590.141 262.915 589.839 263.207 588.691 263.207C587.005 263.207 585.449 265.608 585.449 268.206C585.449 270.714 584.337 271.599 580.756 271.94C578.982 272.108 574.823 273.084 571.513 274.106L565.496 275.967L561.919 274.304C557.825 272.399 556.708 271.153 556.708 268.483C556.708 265.566 555.235 262.636 553.766 262.636C550.284 262.636 548.725 265.762 549.353 271.477L549.75 275.08L546.732 275.709C542.523 276.589 541.998 276.929 535.267 283.157C529.271 288.706 525.728 290.982 524.056 290.357C523.549 290.168 522.399 290.644 521.413 291.453C520.451 292.239 519.038 292.883 518.272 292.883C516.158 292.883 513.89 294.086 513.89 295.205C513.89 295.754 515.597 297.509 517.686 299.105C522.598 302.861 523.525 304.539 522.619 308.036C521.57 312.089 520.438 312.537 512.967 311.868C506.445 311.283 502.569 311.635 501.252 312.934C500.241 313.93 499.332 319.427 498.852 327.428C498.488 333.505 498.524 333.778 499.877 335.288C501.124 336.682 502.009 336.956 507.921 337.776C516.284 338.94 519.533 338.388 523.846 335.072C526.304 333.182 526.912 332.314 527.723 329.549C528.545 326.741 529.266 325.735 532.733 322.558C535.577 319.955 536.965 318.211 537.389 316.709L537.993 314.568H542.7C546.968 314.568 547.642 314.41 549.963 312.858C551.369 311.916 552.744 311.145 553.019 311.145C553.292 311.145 555.439 313.048 557.791 315.374C562.167 319.702 563.809 320.923 569.838 324.322C572.159 325.631 573.544 326.853 574.068 328.054C575.224 330.702 576.63 330.961 578.543 328.877C580.42 326.833 581.168 324.468 580.344 323.184C580.023 322.682 577.792 320.989 575.385 319.42C566.995 313.948 561.966 308.944 562.779 306.88C563.439 305.208 565.538 306.015 568.892 309.231C570.739 311.004 574.25 313.817 576.693 315.485C582.259 319.284 584.103 321.07 584.563 323.101C585.017 325.112 589.875 332.338 592.929 335.542C595.591 338.336 597.177 338.593 599.259 336.566C601.114 334.762 601.22 331.346 599.487 329.203C598.753 328.295 598.348 327.082 598.46 326.13C598.635 324.654 598.823 324.556 601.483 324.556H604.32L607.719 329.977C611.604 336.173 614.081 338.266 616.829 337.67C617.798 337.461 619.645 337.325 620.934 337.367C622.225 337.41 625.712 337.454 628.682 337.468L634.084 337.491L633.811 339.014C633.662 339.851 633.285 342.653 632.973 345.24C632.257 351.19 631.317 352.978 628.284 354.158C624.661 355.568 617.037 355.903 611.739 354.883C607.53 354.074 600.791 351.744 596.995 349.788C594.956 348.735 593.55 349.061 591.299 351.107C590.161 352.142 589.551 353.257 589.547 354.318C589.532 357.412 588.939 358.512 587.286 358.511C584.965 358.511 578.605 355.369 576.473 353.171C575.015 351.666 573.807 351.079 571.077 350.546C566.562 349.665 562.726 347.897 562.266 346.485C562.067 345.877 562.228 343.973 562.622 342.257C563.316 339.24 563.287 339.063 561.713 336.853C560.817 335.596 559.788 334.341 559.424 334.063C558.716 333.522 545.676 334.59 539.112 335.726C537.014 336.089 532.659 337.48 529.434 338.818C522.083 341.866 520.042 342.218 514.902 341.323L510.78 340.608L509.548 342.237C508.872 343.132 506.396 345.69 504.045 347.917C499.961 351.792 499.672 352.246 497.448 358.237C496.17 361.685 494.632 364.89 494.034 365.36C493.434 365.832 491.718 367.046 490.22 368.059C487.022 370.223 485.086 373.031 479.094 384.205L474.664 392.468L475.507 396.177C475.971 398.218 476.518 402.455 476.721 405.595C477.034 410.416 476.888 412.089 475.778 416.394C474.49 421.385 474.483 421.573 475.461 425.81C477.15 433.126 477.571 434.019 481.011 437.553C482.845 439.436 485.49 442.626 486.89 444.642C490.146 449.329 497.585 456.948 500.953 459.043C504.157 461.036 506.057 461.08 509.66 459.247C512.229 457.94 512.999 457.838 519.474 457.948L526.5 458.07L532.433 455.658C536.812 453.878 539.161 453.247 541.399 453.247C544.609 453.247 544.615 453.249 548.431 457.77C549.97 459.592 550.371 459.746 554.401 460.052C558.504 460.364 558.786 460.477 560.06 462.319C561.588 464.53 560.359 478.068 559.424 486.061C570.132 493.479 598.766 503.964 649.5 503.964C649.362 497.523 656.164 489.421 658.039 486.061C660.373 481.877 667.854 472.065 672.831 466.658C680.818 457.982 685.475 450.08 689.589 438.225C691.812 431.818 691.833 431.684 690.803 430.155C689.88 428.787 689.461 428.629 687.311 428.845C685.969 428.98 681.526 429.947 677.44 430.993C668.551 433.27 668.303 433.193 664.828 427.146C663.609 425.022 660.705 421.369 658.375 419.025C656.046 416.683 653.412 413.345 652.521 411.606C651.631 409.868 650.03 407.149 648.962 405.562C647.725 403.721 646.697 401.164 646.127 398.507C645.139 393.897 643.699 390.752 641.817 389.095C641.136 388.497 640.292 386.956 639.94 385.672C639.588 384.388 638.027 380.127 636.47 376.203C632.835 367.046 632.678 366.502 633.69 366.502C634.911 366.502 637.009 368.952 642.114 376.338C648.458 385.515 649.835 388.016 650.281 391.176C650.696 394.107 651.582 395.59 656.337 401.314C660.346 406.137 662.604 410.851 663.428 416.12C664.191 420.996 665.879 425.127 667.332 425.67C668.842 426.234 671.634 425.261 682.229 420.474C688.884 417.468 692.64 415.413 694.253 413.898C695.544 412.686 698.406 410.847 700.615 409.811C705.326 407.601 708.89 404.028 709.394 401.011C709.579 399.898 710.649 397.768 711.773 396.278C715.622 391.177 715.216 389.383 708.951 383.82C706.831 381.938 704.566 379.328 703.915 378.016C703.263 376.705 702.37 375.633 701.929 375.633C701.487 375.633 699.844 376.668 698.277 377.934C693.351 381.912 690.843 381.833 688.682 377.635C687.822 375.963 686.561 374.483 685.634 374.052C682.403 372.551 677.537 365.799 677.537 362.815C677.537 359.384 682.609 362.103 689.049 368.988L692.494 372.67L695.427 372.188C697.04 371.923 699.49 371.691 700.872 371.672C703.116 371.642 703.508 371.842 704.541 373.545C705.178 374.595 706.335 375.736 707.113 376.079C708.839 376.845 713.905 377.711 719.684 378.229L723.45 378.615C711.05 302.471 671.5 253.464 642.299 224.964C642.035 226.852 641.189 227.477 638.691 228.395C637.168 228.957 634.66 230.496 633.12 231.817C629.964 234.525 626.558 236.384 624.758 236.384C623.6 236.384 618.295 232.153 618.295 231.23C618.295 230.984 620.916 230.697 624.12 230.589C628.926 230.427 630.233 230.183 631.598 229.19C633.418 227.868 633.835 226.741 633.29 224.623C632.58 221.874 627.295 219.849 614.233 217.321C609.234 216.353 605.827 215.334 603.382 214.076C600.161 212.418 599.256 212.226 593.954 212.079C590.727 211.989 586.564 212.148 584.702 212.432Z" fill="#2A2A2A"/>
<path d="M50.4 956.68C43.76 956.68 37.6 955.64 31.92 953.56C26.24 951.4 21.32 948.36 17.16 944.44C13.08 940.52 9.88 935.92 7.56 930.64C5.24 925.28 4.08 919.4 4.08 913C4.08 906.6 5.24 900.76 7.56 895.48C9.88 890.12 13.12 885.48 17.28 881.56C21.44 877.64 26.36 874.64 32.04 872.56C37.8 870.4 44.08 869.32 50.88 869.32C58.8 869.32 65.88 870.64 72.12 873.28C78.36 875.92 83.52 879.72 87.6 884.68L72.48 898.36C69.6 895.24 66.48 892.92 63.12 891.4C59.84 889.8 56.16 889 52.08 889C48.48 889 45.2 889.56 42.24 890.68C39.28 891.8 36.76 893.44 34.68 895.6C32.6 897.68 30.96 900.2 29.76 903.16C28.64 906.04 28.08 909.32 28.08 913C28.08 916.52 28.64 919.76 29.76 922.72C30.96 925.68 32.6 928.24 34.68 930.4C36.76 932.48 39.24 934.12 42.12 935.32C45.08 936.44 48.32 937 51.84 937C55.36 937 58.8 936.44 62.16 935.32C65.52 934.12 68.92 932.12 72.36 929.32L85.68 946C80.88 949.44 75.32 952.08 69 953.92C62.68 955.76 56.48 956.68 50.4 956.68ZM85.68 946L64.68 942.88V911.2H85.68V946ZM106.744 955V871H172.624V889.36H130.264V936.64H174.184V955H106.744ZM128.584 921.28V903.52H167.584V921.28H128.584ZM235.729 956.68C229.009 956.68 222.809 955.6 217.129 953.44C211.449 951.28 206.489 948.24 202.249 944.32C198.089 940.32 194.849 935.68 192.529 930.4C190.209 925.12 189.049 919.32 189.049 913C189.049 906.68 190.209 900.88 192.529 895.6C194.849 890.32 198.089 885.72 202.249 881.8C206.489 877.8 211.449 874.72 217.129 872.56C222.809 870.4 229.009 869.32 235.729 869.32C242.529 869.32 248.729 870.4 254.329 872.56C260.009 874.72 264.929 877.8 269.089 881.8C273.249 885.72 276.489 890.32 278.809 895.6C281.209 900.88 282.409 906.68 282.409 913C282.409 919.32 281.209 925.16 278.809 930.52C276.489 935.8 273.249 940.4 269.089 944.32C264.929 948.24 260.009 951.28 254.329 953.44C248.729 955.6 242.529 956.68 235.729 956.68ZM235.729 937C238.929 937 241.889 936.44 244.609 935.32C247.409 934.2 249.809 932.6 251.809 930.52C253.889 928.36 255.489 925.8 256.609 922.84C257.809 919.88 258.409 916.6 258.409 913C258.409 909.32 257.809 906.04 256.609 903.16C255.489 900.2 253.889 897.68 251.809 895.6C249.809 893.44 247.409 891.8 244.609 890.68C241.889 889.56 238.929 889 235.729 889C232.529 889 229.529 889.56 226.729 890.68C224.009 891.8 221.609 893.44 219.529 895.6C217.529 897.68 215.929 900.2 214.729 903.16C213.609 906.04 213.049 909.32 213.049 913C213.049 916.6 213.609 919.88 214.729 922.84C215.929 925.8 217.529 928.36 219.529 930.52C221.609 932.6 224.009 934.2 226.729 935.32C229.529 936.44 232.529 937 235.729 937Z" fill="#52666C"/>
<path d="M300.853 955V871H320.413L355.213 928.12H344.893L378.733 871H398.293L398.533 955H376.693L376.453 904.24H380.173L354.853 946.72H344.293L318.253 904.24H322.813V955H300.853ZM460.105 956.68C447.705 956.68 438.025 953.28 431.065 946.48C424.105 939.68 420.625 930.04 420.625 917.56V871H444.385V916.84C444.385 924.04 445.785 929.2 448.585 932.32C451.465 935.44 455.385 937 460.345 937C465.305 937 469.185 935.44 471.985 932.32C474.785 929.2 476.185 924.04 476.185 916.84V871H499.585V917.56C499.585 930.04 496.105 939.68 489.145 946.48C482.185 953.28 472.505 956.68 460.105 956.68ZM521.681 955V871H541.241L587.561 926.92H578.321V871H601.601V955H582.041L535.721 899.08H544.961V955H521.681ZM624.361 955V871H664.081C673.361 871 681.521 872.72 688.561 876.16C695.601 879.6 701.081 884.44 705.001 890.68C709.001 896.92 711.001 904.36 711.001 913C711.001 921.56 709.001 929 705.001 935.32C701.081 941.56 695.601 946.4 688.561 949.84C681.521 953.28 673.361 955 664.081 955H624.361ZM648.121 936.04H663.121C667.921 936.04 672.081 935.16 675.601 933.4C679.201 931.56 682.001 928.92 684.001 925.48C686.001 921.96 687.001 917.8 687.001 913C687.001 908.12 686.001 903.96 684.001 900.52C682.001 897.08 679.201 894.48 675.601 892.72C672.081 890.88 667.921 889.96 663.121 889.96H648.121V936.04ZM768.262 956.68C755.862 956.68 746.182 953.28 739.222 946.48C732.262 939.68 728.782 930.04 728.782 917.56V871H752.542V916.84C752.542 924.04 753.942 929.2 756.742 932.32C759.622 935.44 763.542 937 768.502 937C773.462 937 777.342 935.44 780.142 932.32C782.942 929.2 784.342 924.04 784.342 916.84V871H807.742V917.56C807.742 930.04 804.262 939.68 797.302 946.48C790.342 953.28 780.662 956.68 768.262 956.68ZM859.358 956.68C852.478 956.68 845.838 955.84 839.438 954.16C833.118 952.4 827.958 950.16 823.958 947.44L831.758 929.92C835.518 932.32 839.838 934.32 844.718 935.92C849.678 937.44 854.598 938.2 859.478 938.2C862.758 938.2 865.398 937.92 867.398 937.36C869.398 936.72 870.838 935.92 871.718 934.96C872.678 933.92 873.158 932.72 873.158 931.36C873.158 929.44 872.278 927.92 870.518 926.8C868.758 925.68 866.478 924.76 863.678 924.04C860.878 923.32 857.758 922.6 854.318 921.88C850.958 921.16 847.558 920.24 844.118 919.12C840.758 918 837.678 916.56 834.878 914.8C832.078 912.96 829.798 910.6 828.038 907.72C826.278 904.76 825.397 901.04 825.397 896.56C825.397 891.52 826.758 886.96 829.478 882.88C832.278 878.8 836.438 875.52 841.958 873.04C847.478 870.56 854.358 869.32 862.598 869.32C868.118 869.32 873.518 869.96 878.798 871.24C884.158 872.44 888.918 874.24 893.078 876.64L885.758 894.28C881.758 892.12 877.798 890.52 873.878 889.48C869.958 888.36 866.158 887.8 862.478 887.8C859.198 887.8 856.558 888.16 854.558 888.88C852.558 889.52 851.118 890.4 850.238 891.52C849.358 892.64 848.918 893.92 848.918 895.36C848.918 897.2 849.758 898.68 851.438 899.8C853.198 900.84 855.478 901.72 858.278 902.44C861.158 903.08 864.278 903.76 867.638 904.48C871.078 905.2 874.478 906.12 877.838 907.24C881.278 908.28 884.398 909.72 887.198 911.56C889.998 913.32 892.238 915.68 893.918 918.64C895.678 921.52 896.558 925.16 896.558 929.56C896.558 934.44 895.158 938.96 892.358 943.12C889.638 947.2 885.518 950.48 879.998 952.96C874.558 955.44 867.678 956.68 859.358 956.68Z" fill="#92C005"/>
<path d="M114.16 1072.44C107.68 1072.44 101.64 1071.4 96.04 1069.32C90.52 1067.16 85.72 1064.12 81.64 1060.2C77.56 1056.28 74.36 1051.68 72.04 1046.4C69.8 1041.12 68.68 1035.32 68.68 1029C68.68 1022.68 69.8 1016.88 72.04 1011.6C74.36 1006.32 77.56 1001.72 81.64 997.8C85.8 993.88 90.64 990.88 96.16 988.8C101.68 986.64 107.72 985.56 114.28 985.56C121.56 985.56 128.12 986.84 133.96 989.4C139.88 991.88 144.84 995.56 148.84 1000.44L136.36 1011.96C133.48 1008.68 130.28 1006.24 126.76 1004.64C123.24 1002.96 119.4 1002.12 115.24 1002.12C111.32 1002.12 107.72 1002.76 104.44 1004.04C101.16 1005.32 98.32 1007.16 95.92 1009.56C93.52 1011.96 91.64 1014.8 90.28 1018.08C89 1021.36 88.36 1025 88.36 1029C88.36 1033 89 1036.64 90.28 1039.92C91.64 1043.2 93.52 1046.04 95.92 1048.44C98.32 1050.84 101.16 1052.68 104.44 1053.96C107.72 1055.24 111.32 1055.88 115.24 1055.88C119.4 1055.88 123.24 1055.08 126.76 1053.48C130.28 1051.8 133.48 1049.28 136.36 1045.92L148.84 1057.44C144.84 1062.32 139.88 1066.04 133.96 1068.6C128.12 1071.16 121.52 1072.44 114.16 1072.44ZM193.969 1071.96C187.089 1071.96 180.969 1070.52 175.609 1067.64C170.329 1064.76 166.129 1060.84 163.009 1055.88C159.969 1050.84 158.449 1045.12 158.449 1038.72C158.449 1032.24 159.969 1026.52 163.009 1021.56C166.129 1016.52 170.329 1012.6 175.609 1009.8C180.969 1006.92 187.089 1005.48 193.969 1005.48C200.769 1005.48 206.849 1006.92 212.209 1009.8C217.569 1012.6 221.769 1016.48 224.809 1021.44C227.849 1026.4 229.369 1032.16 229.369 1038.72C229.369 1045.12 227.849 1050.84 224.809 1055.88C221.769 1060.84 217.569 1064.76 212.209 1067.64C206.849 1070.52 200.769 1071.96 193.969 1071.96ZM193.969 1056.6C197.089 1056.6 199.889 1055.88 202.369 1054.44C204.849 1053 206.809 1050.96 208.249 1048.32C209.689 1045.6 210.409 1042.4 210.409 1038.72C210.409 1034.96 209.689 1031.76 208.249 1029.12C206.809 1026.48 204.849 1024.44 202.369 1023C199.889 1021.56 197.089 1020.84 193.969 1020.84C190.849 1020.84 188.049 1021.56 185.569 1023C183.089 1024.44 181.089 1026.48 179.569 1029.12C178.129 1031.76 177.409 1034.96 177.409 1038.72C177.409 1042.4 178.129 1045.6 179.569 1048.32C181.089 1050.96 183.089 1053 185.569 1054.44C188.049 1055.88 190.849 1056.6 193.969 1056.6ZM247.882 1071V1006.44H265.762V1024.32L262.402 1018.92C264.722 1014.6 268.042 1011.28 272.362 1008.96C276.682 1006.64 281.602 1005.48 287.122 1005.48C292.242 1005.48 296.802 1006.52 300.802 1008.6C304.882 1010.6 308.082 1013.72 310.402 1017.96C312.722 1022.12 313.882 1027.48 313.882 1034.04V1071H295.162V1036.92C295.162 1031.72 294.002 1027.88 291.682 1025.4C289.442 1022.92 286.242 1021.68 282.082 1021.68C279.122 1021.68 276.442 1022.32 274.042 1023.6C271.722 1024.8 269.882 1026.68 268.522 1029.24C267.242 1031.8 266.602 1035.08 266.602 1039.08V1071H247.882ZM339.131 1071V1005C339.131 997.72 341.291 991.92 345.611 987.6C349.931 983.2 356.091 981 364.091 981C366.811 981 369.411 981.28 371.891 981.84C374.451 982.4 376.611 983.28 378.371 984.48L373.451 998.04C372.411 997.32 371.251 996.76 369.971 996.36C368.691 995.96 367.331 995.76 365.891 995.76C363.171 995.76 361.051 996.56 359.531 998.16C358.091 999.68 357.371 1002 357.371 1005.12V1011.12L357.851 1019.16V1071H339.131ZM329.171 1022.28V1007.88H373.931V1022.28H329.171ZM420.477 1071.96C413.117 1071.96 406.637 1070.52 401.037 1067.64C395.517 1064.76 391.237 1060.84 388.197 1055.88C385.157 1050.84 383.637 1045.12 383.637 1038.72C383.637 1032.24 385.117 1026.52 388.077 1021.56C391.117 1016.52 395.237 1012.6 400.437 1009.8C405.637 1006.92 411.517 1005.48 418.077 1005.48C424.397 1005.48 430.077 1006.84 435.117 1009.56C440.237 1012.2 444.277 1016.04 447.237 1021.08C450.197 1026.04 451.677 1032 451.677 1038.96C451.677 1039.68 451.637 1040.52 451.557 1041.48C451.477 1042.36 451.397 1043.2 451.317 1044H398.877V1033.08H441.477L434.277 1036.32C434.277 1032.96 433.597 1030.04 432.237 1027.56C430.877 1025.08 428.997 1023.16 426.597 1021.8C424.197 1020.36 421.397 1019.64 418.197 1019.64C414.997 1019.64 412.157 1020.36 409.677 1021.8C407.277 1023.16 405.397 1025.12 404.037 1027.68C402.677 1030.16 401.997 1033.12 401.997 1036.56V1039.44C401.997 1042.96 402.757 1046.08 404.277 1048.8C405.877 1051.44 408.077 1053.48 410.877 1054.92C413.757 1056.28 417.117 1056.96 420.957 1056.96C424.397 1056.96 427.397 1056.44 429.957 1055.4C432.597 1054.36 434.997 1052.8 437.157 1050.72L447.117 1061.52C444.157 1064.88 440.437 1067.48 435.957 1069.32C431.477 1071.08 426.317 1071.96 420.477 1071.96ZM470.14 1071V1006.44H488.02V1024.68L485.5 1019.4C487.42 1014.84 490.5 1011.4 494.74 1009.08C498.98 1006.68 504.14 1005.48 510.22 1005.48V1022.76C509.42 1022.68 508.7 1022.64 508.06 1022.64C507.42 1022.56 506.74 1022.52 506.02 1022.52C500.9 1022.52 496.74 1024 493.54 1026.96C490.42 1029.84 488.86 1034.36 488.86 1040.52V1071H470.14ZM558.922 1071.96C551.562 1071.96 545.082 1070.52 539.482 1067.64C533.962 1064.76 529.682 1060.84 526.642 1055.88C523.602 1050.84 522.082 1045.12 522.082 1038.72C522.082 1032.24 523.562 1026.52 526.522 1021.56C529.562 1016.52 533.682 1012.6 538.882 1009.8C544.082 1006.92 549.962 1005.48 556.522 1005.48C562.842 1005.48 568.522 1006.84 573.562 1009.56C578.682 1012.2 582.722 1016.04 585.682 1021.08C588.642 1026.04 590.122 1032 590.122 1038.96C590.122 1039.68 590.082 1040.52 590.002 1041.48C589.922 1042.36 589.842 1043.2 589.762 1044H537.322V1033.08H579.922L572.722 1036.32C572.722 1032.96 572.042 1030.04 570.682 1027.56C569.322 1025.08 567.442 1023.16 565.042 1021.8C562.642 1020.36 559.842 1019.64 556.642 1019.64C553.442 1019.64 550.602 1020.36 548.122 1021.8C545.722 1023.16 543.842 1025.12 542.482 1027.68C541.122 1030.16 540.442 1033.12 540.442 1036.56V1039.44C540.442 1042.96 541.202 1046.08 542.722 1048.8C544.322 1051.44 546.522 1053.48 549.322 1054.92C552.202 1056.28 555.562 1056.96 559.402 1056.96C562.842 1056.96 565.842 1056.44 568.402 1055.4C571.042 1054.36 573.442 1052.8 575.602 1050.72L585.562 1061.52C582.602 1064.88 578.882 1067.48 574.402 1069.32C569.922 1071.08 564.762 1071.96 558.922 1071.96ZM608.585 1071V1006.44H626.465V1024.32L623.105 1018.92C625.425 1014.6 628.745 1011.28 633.065 1008.96C637.385 1006.64 642.305 1005.48 647.825 1005.48C652.945 1005.48 657.505 1006.52 661.505 1008.6C665.585 1010.6 668.785 1013.72 671.105 1017.96C673.425 1022.12 674.585 1027.48 674.585 1034.04V1071H655.865V1036.92C655.865 1031.72 654.705 1027.88 652.385 1025.4C650.145 1022.92 646.945 1021.68 642.785 1021.68C639.825 1021.68 637.145 1022.32 634.745 1023.6C632.425 1024.8 630.585 1026.68 629.225 1029.24C627.945 1031.8 627.305 1035.08 627.305 1039.08V1071H608.585ZM729.223 1071.96C722.263 1071.96 716.063 1070.56 710.623 1067.76C705.183 1064.88 700.903 1060.92 697.783 1055.88C694.743 1050.84 693.223 1045.12 693.223 1038.72C693.223 1032.24 694.743 1026.52 697.783 1021.56C700.903 1016.52 705.183 1012.6 710.623 1009.8C716.063 1006.92 722.263 1005.48 729.223 1005.48C736.023 1005.48 741.943 1006.92 746.983 1009.8C752.023 1012.6 755.743 1016.64 758.143 1021.92L743.623 1029.72C741.943 1026.68 739.823 1024.44 737.263 1023C734.783 1021.56 732.063 1020.84 729.103 1020.84C725.903 1020.84 723.023 1021.56 720.463 1023C717.903 1024.44 715.863 1026.48 714.343 1029.12C712.903 1031.76 712.183 1034.96 712.183 1038.72C712.183 1042.48 712.903 1045.68 714.343 1048.32C715.863 1050.96 717.903 1053 720.463 1054.44C723.023 1055.88 725.903 1056.6 729.103 1056.6C732.063 1056.6 734.783 1055.92 737.263 1054.56C739.823 1053.12 741.943 1050.84 743.623 1047.72L758.143 1055.64C755.743 1060.84 752.023 1064.88 746.983 1067.76C741.943 1070.56 736.023 1071.96 729.223 1071.96ZM806.141 1071.96C798.781 1071.96 792.301 1070.52 786.701 1067.64C781.181 1064.76 776.901 1060.84 773.861 1055.88C770.821 1050.84 769.301 1045.12 769.301 1038.72C769.301 1032.24 770.781 1026.52 773.741 1021.56C776.781 1016.52 780.901 1012.6 786.101 1009.8C791.301 1006.92 797.181 1005.48 803.741 1005.48C810.061 1005.48 815.741 1006.84 820.781 1009.56C825.901 1012.2 829.941 1016.04 832.901 1021.08C835.861 1026.04 837.341 1032 837.341 1038.96C837.341 1039.68 837.301 1040.52 837.221 1041.48C837.141 1042.36 837.061 1043.2 836.981 1044H784.541V1033.08H827.141L819.941 1036.32C819.941 1032.96 819.261 1030.04 817.901 1027.56C816.541 1025.08 814.661 1023.16 812.261 1021.8C809.861 1020.36 807.061 1019.64 803.861 1019.64C800.661 1019.64 797.821 1020.36 795.341 1021.8C792.941 1023.16 791.061 1025.12 789.701 1027.68C788.341 1030.16 787.661 1033.12 787.661 1036.56V1039.44C787.661 1042.96 788.421 1046.08 789.941 1048.8C791.541 1051.44 793.741 1053.48 796.541 1054.92C799.421 1056.28 802.781 1056.96 806.621 1056.96C810.061 1056.96 813.061 1056.44 815.621 1055.4C818.261 1054.36 820.661 1052.8 822.821 1050.72L832.781 1061.52C829.821 1064.88 826.101 1067.48 821.621 1069.32C817.141 1071.08 811.981 1071.96 806.141 1071.96Z" fill="#2A2A2A"/>
<path d="M191.26 1174V1118.75L196.105 1123.76H178.68V1114.5H202.31V1174H191.26ZM240.548 1174.85C235.618 1174.85 231.34 1174.11 227.713 1172.64C224.086 1171.17 221.281 1169.1 219.298 1166.43C217.315 1163.71 216.323 1160.54 216.323 1156.91C216.323 1153.29 217.286 1150.23 219.213 1147.73C221.14 1145.24 223.916 1143.34 227.543 1142.04C231.17 1140.74 235.505 1140.08 240.548 1140.08C245.591 1140.08 249.926 1140.74 253.553 1142.04C257.236 1143.34 260.041 1145.27 261.968 1147.82C263.951 1150.31 264.943 1153.34 264.943 1156.91C264.943 1160.54 263.923 1163.71 261.883 1166.43C259.9 1169.1 257.066 1171.17 253.383 1172.64C249.756 1174.11 245.478 1174.85 240.548 1174.85ZM240.548 1166.18C244.628 1166.18 247.858 1165.33 250.238 1163.63C252.618 1161.93 253.808 1159.58 253.808 1156.57C253.808 1153.63 252.618 1151.31 250.238 1149.6C247.858 1147.9 244.628 1147.05 240.548 1147.05C236.468 1147.05 233.266 1147.9 230.943 1149.6C228.62 1151.31 227.458 1153.63 227.458 1156.57C227.458 1159.58 228.62 1161.93 230.943 1163.63C233.266 1165.33 236.468 1166.18 240.548 1166.18ZM240.548 1139.06C244.061 1139.06 246.838 1138.33 248.878 1136.85C250.918 1135.32 251.938 1133.28 251.938 1130.73C251.938 1128.07 250.89 1126 248.793 1124.53C246.696 1123.06 243.948 1122.32 240.548 1122.32C237.148 1122.32 234.428 1123.06 232.388 1124.53C230.348 1126 229.328 1128.07 229.328 1130.73C229.328 1133.28 230.32 1135.32 232.303 1136.85C234.343 1138.33 237.091 1139.06 240.548 1139.06ZM240.548 1145.86C235.958 1145.86 232.02 1145.27 228.733 1144.08C225.446 1142.83 222.896 1141.05 221.083 1138.72C219.326 1136.34 218.448 1133.51 218.448 1130.22C218.448 1126.82 219.355 1123.91 221.168 1121.47C223.038 1118.98 225.645 1117.05 228.988 1115.69C232.331 1114.33 236.185 1113.65 240.548 1113.65C244.968 1113.65 248.85 1114.33 252.193 1115.69C255.536 1117.05 258.143 1118.98 260.013 1121.47C261.883 1123.91 262.818 1126.82 262.818 1130.22C262.818 1133.51 261.911 1136.34 260.098 1138.72C258.341 1141.05 255.791 1142.83 252.448 1144.08C249.105 1145.27 245.138 1145.86 240.548 1145.86ZM294.977 1174.6C289.991 1174.6 286.137 1173.32 283.417 1170.77C280.697 1168.16 279.337 1164.34 279.337 1159.29V1118.58H289.962V1159.04C289.962 1161.19 290.501 1162.86 291.577 1164.05C292.711 1165.24 294.269 1165.84 296.252 1165.84C298.632 1165.84 300.616 1165.22 302.202 1163.97L305.177 1171.53C303.931 1172.55 302.401 1173.32 300.587 1173.83C298.774 1174.34 296.904 1174.6 294.977 1174.6ZM271.857 1137.11V1128.61H302.117V1137.11H271.857ZM316.468 1174V1110.93H327.093V1140.85L324.798 1137.11C326.384 1134.22 328.679 1132.01 331.683 1130.48C334.743 1128.89 338.256 1128.1 342.223 1128.1C345.849 1128.1 349.079 1128.81 351.913 1130.22C354.803 1131.64 357.069 1133.82 358.713 1136.77C360.356 1139.66 361.178 1143.4 361.178 1147.99V1174H350.553V1149.35C350.553 1145.33 349.589 1142.32 347.663 1140.34C345.793 1138.36 343.158 1137.36 339.758 1137.36C337.264 1137.36 335.054 1137.87 333.128 1138.89C331.201 1139.91 329.699 1141.44 328.623 1143.48C327.603 1145.47 327.093 1147.99 327.093 1151.05V1174H316.468ZM404.267 1174V1114.5H447.702V1123.76H415.317V1164.73H448.892V1174H404.267ZM414.467 1148.33V1139.23H444.047V1148.33H414.467ZM481.536 1174.6C477.172 1174.6 473.234 1173.63 469.721 1171.7C466.264 1169.72 463.544 1167 461.561 1163.54C459.577 1160.09 458.586 1156.01 458.586 1151.3C458.586 1146.6 459.577 1142.52 461.561 1139.06C463.544 1135.61 466.264 1132.92 469.721 1130.99C473.234 1129.06 477.172 1128.1 481.536 1128.1C485.332 1128.1 488.732 1128.95 491.736 1130.65C494.739 1132.29 497.119 1134.81 498.876 1138.21C500.632 1141.61 501.511 1145.98 501.511 1151.3C501.511 1156.57 500.661 1160.94 498.961 1164.39C497.261 1167.79 494.909 1170.34 491.906 1172.04C488.902 1173.74 485.446 1174.6 481.536 1174.6ZM482.811 1165.5C485.361 1165.5 487.627 1164.93 489.611 1163.8C491.651 1162.67 493.266 1161.02 494.456 1158.87C495.702 1156.72 496.326 1154.19 496.326 1151.3C496.326 1148.36 495.702 1145.84 494.456 1143.74C493.266 1141.59 491.651 1139.94 489.611 1138.81C487.627 1137.68 485.361 1137.11 482.811 1137.11C480.261 1137.11 477.966 1137.68 475.926 1138.81C473.942 1139.94 472.327 1141.59 471.081 1143.74C469.891 1145.84 469.296 1148.36 469.296 1151.3C469.296 1154.19 469.891 1156.72 471.081 1158.87C472.327 1161.02 473.942 1162.67 475.926 1163.8C477.966 1164.93 480.261 1165.5 482.811 1165.5ZM496.581 1174V1163.29L497.006 1151.22L496.156 1139.15V1110.93H506.696V1174H496.581ZM523.23 1174V1128.61H533.855V1174H523.23ZM528.585 1121.13C526.602 1121.13 524.958 1120.51 523.655 1119.26C522.408 1118.01 521.785 1116.51 521.785 1114.75C521.785 1112.94 522.408 1111.44 523.655 1110.25C524.958 1109 526.602 1108.38 528.585 1108.38C530.568 1108.38 532.183 1108.97 533.43 1110.16C534.733 1111.3 535.385 1112.74 535.385 1114.5C535.385 1116.37 534.762 1117.96 533.515 1119.26C532.268 1120.51 530.625 1121.13 528.585 1121.13ZM567.435 1174.6C562.449 1174.6 558.595 1173.32 555.875 1170.77C553.155 1168.16 551.795 1164.34 551.795 1159.29V1118.58H562.42V1159.04C562.42 1161.19 562.959 1162.86 564.035 1164.05C565.169 1165.24 566.727 1165.84 568.71 1165.84C571.09 1165.84 573.074 1165.22 574.66 1163.97L577.635 1171.53C576.389 1172.55 574.859 1173.32 573.045 1173.83C571.232 1174.34 569.362 1174.6 567.435 1174.6ZM544.315 1137.11V1128.61H574.575V1137.11H544.315ZM588.926 1174V1128.61H599.551V1174H588.926ZM594.281 1121.13C592.298 1121.13 590.654 1120.51 589.351 1119.26C588.104 1118.01 587.481 1116.51 587.481 1114.75C587.481 1112.94 588.104 1111.44 589.351 1110.25C590.654 1109 592.298 1108.38 594.281 1108.38C596.264 1108.38 597.879 1108.97 599.126 1110.16C600.429 1111.3 601.081 1112.74 601.081 1114.5C601.081 1116.37 600.458 1117.96 599.211 1119.26C597.964 1120.51 596.321 1121.13 594.281 1121.13ZM636.446 1174.6C631.8 1174.6 627.663 1173.6 624.036 1171.62C620.41 1169.58 617.548 1166.8 615.451 1163.29C613.355 1159.78 612.306 1155.78 612.306 1151.3C612.306 1146.77 613.355 1142.78 615.451 1139.32C617.548 1135.81 620.41 1133.06 624.036 1131.08C627.663 1129.09 631.8 1128.1 636.446 1128.1C641.15 1128.1 645.315 1129.09 648.941 1131.08C652.625 1133.06 655.486 1135.78 657.526 1139.23C659.623 1142.69 660.671 1146.71 660.671 1151.3C660.671 1155.78 659.623 1159.78 657.526 1163.29C655.486 1166.8 652.625 1169.58 648.941 1171.62C645.315 1173.6 641.15 1174.6 636.446 1174.6ZM636.446 1165.5C639.053 1165.5 641.376 1164.93 643.416 1163.8C645.456 1162.67 647.043 1161.02 648.176 1158.87C649.366 1156.72 649.961 1154.19 649.961 1151.3C649.961 1148.36 649.366 1145.84 648.176 1143.74C647.043 1141.59 645.456 1139.94 643.416 1138.81C641.376 1137.68 639.081 1137.11 636.531 1137.11C633.925 1137.11 631.601 1137.68 629.561 1138.81C627.578 1139.94 625.991 1141.59 624.801 1143.74C623.611 1145.84 623.016 1148.36 623.016 1151.3C623.016 1154.19 623.611 1156.72 624.801 1158.87C625.991 1161.02 627.578 1162.67 629.561 1163.8C631.601 1164.93 633.896 1165.5 636.446 1165.5ZM673.381 1174V1128.61H683.496V1140.85L681.711 1137.11C683.298 1134.22 685.593 1132.01 688.596 1130.48C691.656 1128.89 695.17 1128.1 699.136 1128.1C702.763 1128.1 705.993 1128.81 708.826 1130.22C711.716 1131.64 713.983 1133.82 715.626 1136.77C717.27 1139.66 718.091 1143.4 718.091 1147.99V1174H707.466V1149.35C707.466 1145.33 706.503 1142.32 704.576 1140.34C702.706 1138.36 700.071 1137.36 696.671 1137.36C694.178 1137.36 691.968 1137.87 690.041 1138.89C688.115 1139.91 686.613 1141.44 685.536 1143.48C684.516 1145.47 684.006 1147.99 684.006 1151.05V1174H673.381Z" fill="#FAA329"/>
<line x1="60" y1="1149" x2="133" y2="1149" stroke="#2A2A2A" stroke-width="10"/>
<line x1="767" y1="1149" x2="844" y2="1149" stroke="#2A2A2A" stroke-width="10"/>
</svg>
