<svg width="841" height="839" viewBox="0 0 841 839" fill="none" xmlns="http://www.w3.org/2000/svg">
<path d="M147.922 376.96C170.013 247.506 282.748 148.964 418.499 148.964C549.642 148.964 659.306 240.93 686.516 363.887L684.563 375.232L676.394 374.252C653.358 252.8 546.654 160.964 418.499 160.964C284.722 160.964 174.318 261.036 158.061 390.405L147.922 376.96Z" fill="#2A2A2A"/>
<path fill-rule="evenodd" clip-rule="evenodd" d="M413.018 448.592C410.122 450.998 407.163 453.529 406.445 454.217C405.721 454.904 403.882 456.404 402.356 457.55C400.83 458.696 398.278 460.759 396.679 462.134C390.773 467.227 371.268 480.295 359.523 487.024C355.018 489.608 351.184 491.717 351.007 491.717C350.825 491.717 347.945 493.05 344.611 494.686C341.278 496.316 335.549 498.795 331.882 500.191C328.215 501.587 324.465 503.066 323.549 503.467C316.08 506.764 292.08 513.243 279.028 515.488C275.096 516.165 270.195 517.066 268.132 517.498C266.226 517.875 255.26 519.633 250.015 520.464C250.015 520.464 249.486 584.858 254.689 606.717C258.169 621.332 259.028 624.675 259.721 626.3C260.117 627.217 261.45 631.154 262.684 635.05C265.023 642.404 268.215 651.061 270.273 655.592C270.929 657.035 271.465 658.483 271.465 658.8C271.465 660.123 284.132 686.399 286.533 690.05C287.283 691.196 289.538 694.946 291.538 698.384C294.684 703.785 304.424 718.592 306.57 721.243C308.34 723.425 318.648 736.462 319.783 737.962C321.663 740.425 348.919 767.602 352.299 770.378C375.361 789.326 393.325 801.561 413.507 812.082L418.014 814.429L422.522 812.081C442.704 801.561 460.668 789.326 483.73 770.378C487.11 767.602 514.366 740.425 516.246 737.962C517.381 736.462 527.688 723.425 529.459 721.243C531.605 718.592 541.345 703.785 544.491 698.384C546.491 694.946 548.746 691.196 549.496 690.05C551.897 686.399 564.564 660.123 564.564 658.8C564.564 658.483 565.1 657.035 565.756 655.592C567.813 651.061 571.006 642.404 573.345 635.05C574.579 631.154 575.912 627.217 576.308 626.3C577.001 624.675 577.86 621.331 581.34 606.717C586.543 584.858 586.014 520.464 586.014 520.464C580.769 519.633 569.803 517.875 567.897 517.498C565.834 517.066 560.933 516.165 557.001 515.488C543.949 513.243 519.949 506.764 512.48 503.467C511.563 503.066 507.813 501.587 504.147 500.191C500.48 498.795 494.751 496.316 491.418 494.686C488.084 493.05 485.204 491.717 485.022 491.717C484.845 491.717 481.011 489.607 476.506 487.024C464.761 480.295 445.256 467.227 439.35 462.134C437.751 460.759 435.199 458.696 433.673 457.55C432.147 456.404 430.308 454.904 429.584 454.217C428.866 453.529 425.907 450.998 423.011 448.592C420.978 446.9 419.074 445.424 418.014 444.697C416.955 445.424 415.051 446.9 413.018 448.592ZM308.679 572.587C355.556 564.285 401.101 536.938 418.014 524.302C434.928 536.938 480.473 564.285 527.35 572.587C527.965 603.266 515.828 673.21 462.355 707.545C462.355 665.21 432.795 656.127 418.014 656.878C403.234 656.127 373.674 665.21 373.674 707.545C320.201 673.21 308.064 603.266 308.679 572.587Z" fill="#FAA329"/>
<circle cx="418.5" cy="620.464" r="26.5" fill="#FAA329"/>
<path fill-rule="evenodd" clip-rule="evenodd" d="M126.117 596.28C133.471 596.613 137.154 597.223 141.951 598.895C150.604 601.738 170.821 611.83 182.456 629.447C186.602 635.348 192.232 646.947 193.143 651.468L193.649 653.968L186.341 654.02C178.268 654.082 175.201 655.171 170.477 659.655C163.43 666.348 165.362 677.202 176.117 691.348C191.504 710.554 251.5 765.965 355.5 802.965C292.5 762.965 245.333 693.965 235 659.965C116.617 569.465 117.367 465.464 116 421.889H0C0 520.56 40.6662 606.053 60.9996 636.465C65.578 622.199 85.0115 594.188 126.117 596.28Z" fill="#2EA5CA"/>
<path fill-rule="evenodd" clip-rule="evenodd" d="M117.367 614.082C99.034 618.879 86.7996 630.421 80.4194 648.942C77.7579 656.66 77.4454 672.082 79.7944 679.712C82.711 689.197 85.2267 693.645 93.7215 704.384C163 779.965 310 838.965 416 838.965C356.288 826.59 167.261 746.777 145.086 679.895C143.602 676.952 142.81 668.093 143.596 663.264C144.482 657.832 148.846 650.582 152.555 648.4C158.742 644.754 166.805 643.421 171.617 645.249C175.05 646.556 175.914 645.103 173.971 641.28C172.029 637.468 157.524 622.77 154.034 621.082C152.659 620.415 150.971 619.452 150.284 618.931C149.596 618.415 146.596 617.113 143.617 616.04C139.346 614.504 136.175 614.046 128.617 613.869C123.346 613.749 118.284 613.843 117.367 614.082Z" fill="#2EA5CA"/>
<path fill-rule="evenodd" clip-rule="evenodd" d="M725 421.964H841C841 480.464 826.5 558.465 782.82 631.965H739L724 589.965L703.5 649.965L683 588.965L655.003 669.15L646.5 649.384H619C693.201 583.465 720.951 509.964 725 421.964Z" fill="#52666C"/>
<path fill-rule="evenodd" clip-rule="evenodd" d="M640.149 659.614H606.406C582 717.465 529 802.965 420 838.965C513 839.965 671.5 802.965 776.96 641.635H731.5L724 619.965L703.5 679.965L683 620.965L654.995 699.893L640.149 659.614Z" fill="#52666C"/>
<path fill-rule="evenodd" clip-rule="evenodd" d="M71.4996 240.464C96.8557 199.11 94.6941 184.909 91.8594 166.285C89.9987 154.06 87.8479 139.93 92.9996 114.965C53.4996 148.465 -17.9017 230.229 54.4996 258.464C54.8048 259.216 55.1074 260.011 55.4266 260.851C57.3734 265.97 59.9392 272.717 67.4996 280.964C59.0558 292.006 47.7839 301.632 38.4871 309.571C32.6496 314.556 27.5905 318.876 24.4996 322.464C23.1832 323.993 22.0969 325.221 21.174 326.265C16.4791 331.574 16.014 332.1 10.9996 342.964C6.48179 352.753 3.01537 368.681 1.92051 383.717C1.44809 390.205 1.08331 395.214 0.500014 396.964H116.74C118 376.964 121.5 351.964 132.6 318.964C139.464 300.871 144.067 281.784 148.222 264.55C155.206 235.587 160.928 211.86 174 206.884C224.207 196.697 265.275 164.144 276.5 149.464C294.933 125.358 358.7 78.5645 431.5 112.965C388.5 -11.0355 121.5 1.46454 103 212.964C115.763 184.798 182 91.4645 274 76.9645C199.5 97.9645 161 138.963 81.9996 264.964C39.9996 231.964 49.9996 196.964 60.9996 165.964C54.4996 212.964 61.3697 231.522 71.4996 240.464Z" fill="#92C005"/>
<path d="M764 173.464C766.5 178.964 765.008 191.699 764 193.464C741.833 138.964 667.376 47.4645 517.5 8.96448C506.3 5.916 490.666 11.1942 484.5 11.9644C471.242 11.9644 465.5 1.46454 465.5 1.46454C458.5 25.4644 483.5 35.4645 503 41.9645C475.5 39.9645 459 23.4647 446 13.9645C413.2 -7.23569 362 -0.535547 323.5 9.46454C394 11.9644 439.5 58.7979 450 75.4646C479.6 118.665 542 120.798 569.5 116.464C593.5 110.964 608.836 100.219 627.5 103.464C698.5 123.965 617.754 191.965 612.636 122.465C604.136 117.464 580 128.464 569.5 141.964C599.983 130.29 612.876 144.165 612.636 165.305C614.746 200.378 649 226.628 665.864 235.368C677.898 239.895 687.98 243.687 695.117 259.465C695.117 259.465 678.538 248.464 665.617 253.965C666.07 254.192 666.52 254.418 666.967 254.64C667.236 254.774 667.503 254.907 667.769 255.04L667.783 255.047L667.794 255.052C678.748 260.504 687.74 264.979 689.617 280.465C690.039 283.944 690.031 287.924 690.023 292.024C690.002 303.138 689.979 315.137 698.5 320.464C701.453 323.576 703.951 325.693 706.085 327.502C710.729 331.438 713.642 333.907 715.748 341.965C720.545 360.324 723.563 378.723 724.5 396.964H768.065C769.401 390.563 768.741 376.403 768.301 366.956L768.252 365.92C768.175 364.251 768.108 362.756 768.065 361.514C767.939 357.896 766.765 356.566 764.893 354.446C764.033 353.473 763.026 352.332 761.906 350.726C756.907 346.5 754.894 338.841 755.598 333.22C756.442 326.478 752.456 323.706 747.6 320.329L747.269 320.099L747.103 319.983C746.948 319.875 746.792 319.766 746.636 319.656C753.738 318.586 760.77 324.861 760.77 324.861C759.015 317.482 754.404 314.893 748.901 311.803C742.453 308.182 734.779 303.873 729.037 290.363C727.512 286.774 728.941 281.779 730.325 276.94C732.88 268.009 735.282 259.612 718.677 261.586C725.488 256.891 735.365 258.368 738.544 261.217C727.965 298.182 796.882 270.567 738.032 246.623C734.978 245.38 728.633 244.215 721.626 242.929C712.872 241.322 703.083 239.525 697.386 237.149C644.095 217.894 624.385 180.836 625 167.964C632.882 184.964 658.322 189.132 658.5 187.964L658.92 185.65L661.624 170.751L661.615 170.722C661.619 170.732 661.623 170.741 661.624 170.751C661.626 170.76 659.773 180.956 658.92 185.65L658.5 187.964C658.535 203.971 679.94 200.343 689.081 202.752C689.081 202.752 681.648 199.075 682.009 192.901C682.009 192.901 684.443 196.051 691.079 197.343C743.943 198.446 776.696 232.314 786.465 249.11C787.173 248.461 787.103 247.717 787 246.623C786.965 246.26 786.498 244.411 785.817 241.723C784.482 236.445 782.324 227.919 781 220.964C823 322.464 824.924 394.161 824.162 396.964L840.461 396.964C840.461 391.008 838.063 314.793 799.325 235.464C798.372 233.513 797.076 228.361 795.403 221.714L795.401 221.708C791.635 206.743 785.961 184.195 778 173.464C775.863 170.584 773.646 168.533 771.454 166.505C766.172 161.619 761.033 156.865 757.5 140.964C757.5 152.464 762.181 169.464 764 173.464Z" fill="#F97027"/>
<path fill-rule="evenodd" clip-rule="evenodd" d="M378.224 164.802C369.706 166.09 366.356 167.222 363.74 169.693C361.243 172.049 360.499 172.234 357.297 171.296C351.565 169.615 342.856 170.831 330.251 175.072C322.116 177.81 321.382 178.298 321.838 180.663C322.342 183.276 321.42 183.809 314.682 184.794C306.594 185.977 304.716 187.397 307.673 190.099C308.442 190.804 309.232 192.146 309.424 193.081C309.701 194.432 310.347 195.029 312.567 195.987C314.964 197.022 316.367 197.18 322.401 197.097C330.822 196.98 334.536 197.634 338.173 199.879C340.417 201.264 341.278 202.333 343.086 205.988C344.866 209.588 345.551 210.45 346.743 210.588C350.605 211.033 352.307 212.444 353.679 216.34C354.352 218.248 354.321 218.302 350.551 221.9C346.176 226.074 346.056 226.593 348.192 232.114C353.113 244.835 360.101 252.935 366.156 252.935C367.279 252.935 369.004 253.553 370.273 254.406C373.206 256.385 374.323 255.737 377.021 250.487C378.183 248.224 380.162 244.899 381.415 243.097C382.67 241.294 383.704 239.37 383.714 238.816C383.764 236.148 387.474 234.157 393.271 233.689C397.469 233.349 397.489 233.341 401.293 229.806C405.79 225.625 406.525 225.212 410.383 224.678C421.229 223.177 431.201 219.34 433.863 215.642C435.266 213.693 434.948 210.478 433.147 208.394C431.602 206.61 431.592 206.55 432.707 205.737C433.333 205.28 435.095 204.283 436.621 203.52C440.535 201.567 441.411 200.046 441.022 195.881C440.85 194.026 440.033 191.071 439.206 189.316L437.703 186.124L440.76 183.826C442.441 182.561 445.645 180.778 447.879 179.861C460.943 174.507 455.767 169.061 440.882 172.5C438.087 173.146 434.965 173.595 433.943 173.499C432.324 173.345 432.062 173.088 431.904 171.478C431.671 169.142 429.134 166.622 426.142 165.751C421.735 164.469 413.146 163.917 398.359 163.968C388.841 163.999 381.519 164.303 378.224 164.802ZM318.003 169.909C307.439 173.623 277.81 188.832 271.328 193.869L269.858 195.01L277.654 194.955C281.941 194.925 285.881 194.863 286.408 194.813C286.935 194.764 288.782 193.621 290.513 192.271L297.471 186.849C299.696 185.117 302.137 183.729 303.336 183.516C304.467 183.317 307.107 182.333 309.203 181.328C311.3 180.325 315.209 178.656 317.888 177.62C320.568 176.586 323.302 175.311 323.964 174.79L325.166 173.841L323.574 172.001C321.343 169.422 320.398 169.066 318.003 169.909ZM266.093 197.314C261.499 200.333 258.122 202.854 258.361 203.086C258.782 203.497 279.491 202.129 281.748 201.541C283.141 201.177 284.055 200.539 284.312 199.748C284.869 198.04 283.444 197.18 279.397 196.783C268.078 195.676 268.615 195.655 266.093 197.314ZM346.974 214.365C346.799 214.809 346.741 215.901 346.846 216.79C346.998 218.084 347.366 218.445 348.685 218.591C351.071 218.858 352.105 217.839 351.366 215.95C351.041 215.118 350.462 214.242 350.078 214.005C348.949 213.306 347.317 213.495 346.974 214.365ZM447.337 229.567C440.992 230.819 439.227 230.89 436.68 229.995C434.243 229.137 432.058 229.82 430.431 231.947L429.241 233.501L430.81 234.914C431.672 235.694 432.379 236.856 432.379 237.499C432.379 239.525 434.363 240.783 438.762 241.548C442.605 242.216 443.304 242.174 447.757 240.985C453.69 239.404 457.98 237.348 458.468 235.855C458.67 235.236 458.435 233.977 457.945 233.056C457.067 231.403 453.773 228.336 453.01 228.46C452.793 228.495 450.239 228.993 447.337 229.567ZM477.728 254.048C475.151 255.576 474.434 257.148 474.742 260.577C475.147 265.072 477.272 269.231 480.11 271.087C481.436 271.952 482.609 273.108 482.717 273.655C482.825 274.202 482.102 275.842 481.108 277.3C479.18 280.134 478.926 281.43 479.941 283.273C480.463 284.226 480.354 284.584 479.32 285.287C478.55 285.812 478.133 286.621 478.243 287.375C478.459 288.843 479.471 288.861 488.687 287.552C494.255 286.762 494.997 286.513 496.428 284.955C497.298 284.007 498.187 282.313 498.404 281.188C498.763 279.326 498.557 278.886 496.045 276.17C494.531 274.533 491.846 271.396 490.077 269.2C486.925 265.283 486.866 265.144 487.15 262.162C487.427 259.258 487.361 259.074 485.701 258.166C484.745 257.642 483.816 256.572 483.637 255.788C483.459 255.003 483.209 254.041 483.086 253.648C482.747 252.577 479.841 252.793 477.728 254.048ZM468.041 269.199C466.525 270.281 465.007 271.67 464.669 272.285C464.33 272.901 464.053 275.604 464.053 278.293V283.181L467.133 283.18C471.385 283.179 474.002 281.781 475.676 278.616C476.707 276.666 476.98 275.36 476.812 273.194C476.336 267.057 473.104 265.585 468.041 269.199Z" fill="#2A2A2A"/>
<path fill-rule="evenodd" clip-rule="evenodd" d="M268.197 208.742C269.385 206.382 271.493 205.091 275.184 204.465C279.564 203.722 287.923 204.088 290.435 205.132C291.563 205.602 293.343 206.791 294.389 207.774C295.433 208.758 296.711 209.562 297.225 209.562C297.741 209.562 300.301 210.477 302.915 211.595C305.529 212.713 309.115 213.994 310.885 214.443C314.304 215.31 316.83 217.126 316.83 218.715C316.83 220.436 318.971 222.392 322.027 223.461C326.279 224.948 329.733 227.512 329.733 229.182C329.733 230.814 325.043 235.243 323.315 235.243C322.673 235.243 320.9 234.473 319.373 233.531C317.847 232.59 316.255 231.819 315.834 231.819C314.364 231.819 315.086 233.531 317.094 234.81C319.097 236.086 320.348 237.919 320.348 239.578C320.348 241.251 318.547 243.792 317.111 244.142C316.311 244.339 315.656 244.85 315.656 245.281C315.656 247.419 307.964 246.653 302.495 243.969C300.863 243.168 298.659 241.774 297.598 240.875C296.842 240.232 296.392 239.82 295.868 239.554C294.869 239.047 293.603 239.066 289.431 239.014C285.666 238.966 284.388 238.733 283.575 237.944C281.745 236.166 283.947 234.178 289.123 232.941C292.108 232.226 295.21 229.723 296.571 226.931C297.823 224.367 297.318 223.707 292.873 222.104C291.049 221.446 288.566 220.246 287.358 219.439C284.961 217.839 282.226 217.81 278.919 219.35C277.403 220.057 277.229 220.429 277.162 223.118C277.042 227.8 275.222 229.65 269.334 231.076L267.296 231.568L269.627 232.968C273.129 235.071 276.357 238.098 276.357 239.278C276.357 240.7 274.064 241.048 266.106 240.836L259.667 240.665L259.091 238.952C258.774 238.012 258.452 237.147 258.375 237.033C258.166 236.724 251.001 240.688 244.872 244.506C240.87 246.998 239.025 248.559 237.687 250.589C235.496 253.91 235.453 254.838 237.383 257.07C238.206 258.021 239.031 259.539 239.217 260.441C239.461 261.628 239.979 262.164 241.093 262.384C244.843 263.125 247.853 264.095 255.632 267.069C264.379 270.413 265.209 271.057 265.216 274.506C265.226 278.815 267.384 282.04 270.257 282.04C272.299 282.04 272.939 280.65 273.192 275.648L273.432 270.934L276.985 267.445L280.538 263.958L279.228 261.333C277.99 258.857 277.958 258.468 278.642 254.537C280.23 245.422 280.516 244.743 283.107 243.901C286.111 242.925 291.752 243.739 297.272 245.943C302.379 247.984 304.511 249.92 304.511 252.515C304.511 255.257 306.428 257.501 308.769 257.501C310.246 257.501 311.216 256.848 313.858 254.073C315.654 252.188 317.553 250.648 318.081 250.649C319.675 250.653 322.932 254.714 324.729 258.939C326.868 263.966 328.415 265.619 333.593 268.396C335.876 269.62 338.779 271.492 340.041 272.553L342.337 274.485L342.447 280.117C342.507 283.215 342.574 286.067 342.597 286.456C342.619 286.844 343.679 287.801 344.951 288.582C348.858 290.983 351.826 297.458 350.296 300.242C349.48 301.724 348.916 301.736 345.902 300.335C344.59 299.727 341.273 298.936 338.532 298.582C329.535 297.413 328.907 296.38 332.631 288.888C333.933 286.266 334.892 284.017 334.76 283.887C334.628 283.759 332.19 284.761 329.34 286.115L324.161 288.574L315.947 288.416L307.733 288.258L305.714 290.285L303.695 292.312H314.228L314.004 296.167C313.75 300.548 314.16 301.162 318.394 302.759C320.716 303.633 320.911 303.623 322.299 302.561C325.228 300.319 327.884 301.935 327.085 305.474C326.673 307.302 324.351 308.867 318.589 311.199C316.814 311.917 314.366 313.106 313.146 313.839C309.756 315.883 307.784 316.09 306.655 314.521C306.102 313.753 305.856 312.675 306.057 311.896C306.274 311.055 306.138 310.574 305.684 310.574C304.557 310.574 298.473 313.881 296.104 315.78C293.786 317.64 293.461 318.853 294.815 320.595C296.299 322.504 295.834 322.978 291.461 324.005C284.001 325.758 282.433 326.746 280.168 331.122C278.864 333.64 277.742 335.076 276.912 335.287C275.709 335.594 275.666 335.823 276.063 339.663L276.48 343.717L273.601 346.407C272.018 347.885 268.416 350.861 265.596 353.019C262.776 355.175 259.841 357.744 259.074 358.725L257.677 360.51L258.878 365.931C260.271 372.218 260.574 380.991 259.462 382.909C259.054 383.615 258.25 384.193 257.677 384.193C255.234 384.193 251.219 377.864 249.989 372.067C249.606 370.262 248.903 368.407 248.427 367.943C246.845 366.403 235.237 363.682 233.314 364.4C232.741 364.613 232.366 365.412 232.366 366.414C232.366 369.266 231.419 369.458 225.344 367.842C220.674 366.601 219.517 366.476 217.657 367.018C214.954 367.806 209.802 372.225 208.356 374.998C205.485 380.497 204.784 393.576 207.059 399.16C209.132 404.245 212.232 405.894 218.111 405.037C221.151 404.593 224.74 401.735 224.74 399.759C224.74 399.153 225.413 398.044 226.236 397.292C227.44 396.192 228.508 395.884 231.732 395.706C235.321 395.509 235.824 395.614 236.633 396.738C237.454 397.877 237.411 398.425 236.158 402.932C235.401 405.652 234.239 409.394 233.575 411.248C232.91 413.102 232.366 414.835 232.366 415.1C232.366 415.364 234.69 415.58 237.53 415.58C242.607 415.58 242.726 415.613 244.577 417.472L246.461 419.363L246.406 427.149L246.352 434.936L248.158 437.49C250.297 440.514 250.74 440.683 256.251 440.571C259.664 440.502 260.725 440.695 261.71 441.564C263.371 443.024 264.459 442.293 266.728 438.191C267.723 436.393 269.042 434.454 269.66 433.884C271.317 432.356 281.656 427.924 282.224 428.5C282.492 428.771 282.797 429.631 282.905 430.414C283.167 432.3 284.905 432.558 286.645 430.968L288.031 429.702L293.643 432.393C299.582 435.242 300.863 435.394 308.1 434.112C310.957 433.605 313.488 434.944 315.452 437.996C317.403 441.029 324.559 447.784 327.758 449.609C329.113 450.384 332.312 451.357 335.013 451.819C343.217 453.223 345.454 455.106 350.265 464.66L352.706 469.511C329.672 487.088 278.649 498.099 256.017 501.407C255.106 500.117 253.603 498.003 252.677 496.709C250.341 493.444 250.022 490.065 251.738 486.722C252.956 484.35 253.005 483.915 252.32 481.534C250.917 476.659 252.781 471.095 257.499 466.073C262.509 460.739 263.123 453.042 258.966 447.682C257.185 445.385 256.404 445.359 254.747 447.54C253.964 448.571 252.915 449.252 252.109 449.252C251.375 449.252 248.15 447.442 244.942 445.231C237.14 439.851 237.058 439.776 237.058 438.106C237.058 435.869 234.996 432.442 232.535 430.587C231.312 429.665 228.243 427.969 225.714 426.816C222.445 425.326 219.947 423.622 217.078 420.927L213.04 417.134L210.239 417.598C203.786 418.665 201.663 417.902 189.775 410.238C180.335 404.151 179.985 403.732 179.549 397.958C179.327 395.027 178.75 392.63 177.809 390.737C176.244 387.586 171.538 380.069 168.995 376.652C168.088 375.433 166.501 372.457 165.471 370.04C162.016 361.933 160.697 359.87 159.452 360.619C158.553 361.16 159.538 365.095 161.741 369.758C165.08 376.819 169.686 388.232 170.03 390.295C170.327 392.079 170.249 392.183 168.588 392.183C165.868 392.183 161.188 396.333 158 390.294C156.383 387.234 157.29 378.148 156.456 377.388C155.228 376.267 154.941 375.477 154.941 373.218C154.941 372.187 154.45 370.789 154.02 369.566C153.811 368.97 153.616 368.415 153.5 367.964C158.5 337.964 180 274.964 232 225.586H233.399C236.472 226.274 237.234 225.897 238.702 222.955C240.158 220.04 240.332 218.7 239.258 218.677C238.403 218.658 243.883 213.557 244.759 213.557C245.86 213.557 249.242 216.443 250.762 218.678C252.015 220.52 252.659 220.936 254.491 221.083C256.398 221.237 256.871 221.572 257.897 223.501C258.551 224.735 259.429 225.853 259.846 225.988C260.862 226.318 263.183 224.129 264.1 221.973C264.941 219.998 264.654 219.668 259.081 216.214C257.483 215.224 255.674 213.574 255.061 212.548C254.032 210.825 254.018 210.577 254.876 209.305C256.593 206.755 259.828 204.807 262.429 204.758C264.959 204.709 265.328 205.062 266.829 208.976L267.37 210.387L268.197 208.742Z" fill="#2A2A2A"/>
<path fill-rule="evenodd" clip-rule="evenodd" d="M550.702 212.432C546.246 213.112 540.497 214.864 536.979 216.613C533.567 218.309 531.805 220.076 526.092 227.542C520.745 234.53 519.334 235.757 511.671 240.095L505.619 243.518L505.996 247.997C506.205 250.459 506.728 253.618 507.161 255.015C509.004 260.973 511.102 261.902 516.591 259.191C518.754 258.124 520.686 257.526 521.33 257.728C522.431 258.075 522.782 258.533 527.654 265.988L530.402 270.196L533.074 269.903C537.057 269.466 538.665 268.006 539.799 263.796C540.327 261.833 541.319 259.55 542.003 258.721C544.479 255.724 544.554 254.871 542.683 251.043C540.417 246.407 540.72 245.218 545.31 240.752C547.338 238.778 549.404 236.218 549.9 235.062C550.747 233.089 550.961 232.961 553.4 232.961C556.81 232.961 557.72 233.966 556.459 236.339C555.948 237.3 554.881 238.5 554.087 239.007C552.012 240.329 550.276 243.339 550.276 245.615C550.276 247.651 552.65 252.915 554.095 254.082C554.719 254.586 555.673 254.594 557.966 254.116C563.102 253.044 571.154 252.671 571.668 253.48C572.575 254.908 570.363 255.889 564.622 256.605C559.571 257.235 558.713 257.507 557.509 258.869C556.757 259.721 556.141 261.045 556.141 261.813C556.141 262.915 555.839 263.207 554.691 263.207C553.005 263.207 551.449 265.608 551.449 268.206C551.449 270.714 550.337 271.599 546.756 271.94C544.982 272.108 540.823 273.084 537.513 274.106L531.496 275.967L527.919 274.304C523.825 272.399 522.708 271.153 522.708 268.483C522.708 265.566 521.235 262.636 519.766 262.636C516.284 262.636 514.725 265.762 515.353 271.477L515.75 275.08L512.732 275.709C508.523 276.589 507.998 276.929 501.267 283.157C495.271 288.706 491.728 290.982 490.056 290.357C489.549 290.168 488.399 290.644 487.413 291.453C486.451 292.239 485.038 292.883 484.272 292.883C482.158 292.883 479.89 294.086 479.89 295.205C479.89 295.754 481.597 297.509 483.686 299.105C488.598 302.861 489.525 304.539 488.619 308.036C487.57 312.089 486.438 312.537 478.967 311.868C472.445 311.283 468.569 311.635 467.252 312.934C466.241 313.93 465.332 319.427 464.852 327.428C464.488 333.505 464.524 333.778 465.877 335.288C467.124 336.682 468.009 336.956 473.921 337.776C482.284 338.94 485.533 338.388 489.846 335.072C492.304 333.182 492.912 332.314 493.723 329.549C494.545 326.741 495.266 325.735 498.733 322.558C501.577 319.955 502.965 318.211 503.389 316.709L503.993 314.568H508.7C512.968 314.568 513.642 314.41 515.963 312.858C517.369 311.916 518.744 311.145 519.019 311.145C519.292 311.145 521.439 313.048 523.791 315.374C528.167 319.702 529.809 320.923 535.838 324.322C538.159 325.631 539.544 326.853 540.068 328.054C541.224 330.702 542.63 330.961 544.543 328.877C546.42 326.833 547.168 324.468 546.344 323.184C546.023 322.682 543.792 320.989 541.385 319.42C532.995 313.948 527.966 308.944 528.779 306.88C529.439 305.208 531.538 306.015 534.892 309.231C536.739 311.004 540.25 313.817 542.693 315.485C548.259 319.284 550.103 321.07 550.563 323.101C551.017 325.112 555.875 332.338 558.929 335.542C561.591 338.336 563.177 338.593 565.259 336.566C567.114 334.762 567.22 331.346 565.487 329.203C564.753 328.295 564.348 327.082 564.46 326.13C564.635 324.654 564.823 324.556 567.483 324.556H570.32L573.719 329.977C577.604 336.173 580.081 338.266 582.829 337.67C583.798 337.461 585.645 337.325 586.934 337.367C588.225 337.41 591.712 337.454 594.682 337.468L600.084 337.491L599.811 339.014C599.662 339.851 599.285 342.653 598.973 345.24C598.257 351.19 597.317 352.978 594.284 354.158C590.661 355.568 583.037 355.903 577.739 354.883C573.53 354.074 566.791 351.744 562.995 349.788C560.956 348.735 559.55 349.061 557.299 351.107C556.161 352.142 555.551 353.257 555.547 354.318C555.532 357.412 554.939 358.512 553.286 358.511C550.965 358.511 544.605 355.369 542.473 353.171C541.015 351.666 539.807 351.079 537.077 350.546C532.562 349.665 528.726 347.897 528.266 346.485C528.067 345.877 528.228 343.973 528.622 342.257C529.316 339.24 529.287 339.063 527.713 336.853C526.817 335.596 525.788 334.341 525.424 334.063C524.716 333.522 511.676 334.59 505.112 335.726C503.014 336.089 498.659 337.48 495.434 338.818C488.083 341.866 486.042 342.218 480.902 341.323L476.78 340.608L475.548 342.237C474.872 343.132 472.396 345.69 470.045 347.917C465.961 351.792 465.672 352.246 463.448 358.237C462.17 361.685 460.632 364.89 460.034 365.36C459.434 365.832 457.718 367.046 456.22 368.059C453.022 370.223 451.086 373.031 445.094 384.205L440.664 392.468L441.507 396.177C441.971 398.218 442.518 402.455 442.721 405.595C443.034 410.416 442.888 412.089 441.778 416.394C440.49 421.385 440.483 421.573 441.461 425.81C443.15 433.126 443.571 434.019 447.011 437.553C448.845 439.436 451.49 442.626 452.89 444.642C456.146 449.329 463.585 456.948 466.953 459.043C470.157 461.036 472.057 461.08 475.66 459.247C478.229 457.94 478.999 457.838 485.474 457.948L492.5 458.07L498.433 455.658C502.812 453.878 505.161 453.247 507.399 453.247C510.609 453.247 510.615 453.249 514.431 457.77C515.97 459.592 516.371 459.746 520.401 460.052C524.504 460.364 524.786 460.477 526.06 462.319C527.588 464.53 526.359 478.068 525.424 486.061C536.132 493.479 564.766 503.964 615.5 503.964C615.362 497.523 622.164 489.421 624.039 486.061C626.373 481.877 633.854 472.065 638.831 466.658C646.818 457.982 651.475 450.08 655.589 438.225C657.812 431.818 657.833 431.684 656.803 430.155C655.88 428.787 655.461 428.629 653.311 428.845C651.969 428.98 647.526 429.947 643.44 430.993C634.551 433.27 634.303 433.193 630.828 427.146C629.609 425.022 626.705 421.369 624.375 419.025C622.046 416.683 619.412 413.345 618.521 411.606C617.631 409.868 616.03 407.149 614.962 405.562C613.725 403.721 612.697 401.164 612.127 398.507C611.139 393.897 609.699 390.752 607.817 389.095C607.136 388.497 606.292 386.956 605.94 385.672C605.588 384.388 604.027 380.127 602.47 376.203C598.835 367.046 598.678 366.502 599.69 366.502C600.911 366.502 603.009 368.952 608.114 376.338C614.458 385.515 615.835 388.016 616.281 391.176C616.696 394.107 617.582 395.59 622.337 401.314C626.346 406.137 628.604 410.851 629.428 416.12C630.191 420.996 631.879 425.127 633.332 425.67C634.842 426.234 637.634 425.261 648.229 420.474C654.884 417.468 658.64 415.413 660.253 413.898C661.544 412.686 664.406 410.847 666.615 409.811C671.326 407.601 674.89 404.028 675.394 401.011C675.579 399.898 676.649 397.768 677.773 396.278C681.622 391.177 681.216 389.383 674.951 383.82C672.831 381.938 670.566 379.328 669.915 378.016C669.263 376.705 668.37 375.633 667.929 375.633C667.487 375.633 665.844 376.668 664.277 377.934C659.351 381.912 656.843 381.833 654.682 377.635C653.822 375.963 652.561 374.483 651.634 374.052C648.403 372.551 643.537 365.799 643.537 362.815C643.537 359.384 648.609 362.103 655.049 368.988L658.494 372.67L661.427 372.188C663.04 371.923 665.49 371.691 666.872 371.672C669.116 371.642 669.508 371.842 670.541 373.545C671.178 374.595 672.335 375.736 673.113 376.079C674.839 376.845 679.905 377.711 685.684 378.229L689.45 378.615C677.05 302.471 637.5 253.464 608.299 224.964C608.035 226.852 607.189 227.477 604.691 228.395C603.168 228.957 600.66 230.496 599.12 231.817C595.964 234.525 592.558 236.384 590.758 236.384C589.6 236.384 584.295 232.153 584.295 231.23C584.295 230.984 586.916 230.697 590.12 230.589C594.926 230.427 596.233 230.183 597.598 229.19C599.418 227.868 599.835 226.741 599.29 224.623C598.58 221.874 593.295 219.849 580.233 217.321C575.234 216.353 571.827 215.334 569.382 214.076C566.161 212.418 565.256 212.226 559.954 212.079C556.727 211.989 552.564 212.148 550.702 212.432Z" fill="#2A2A2A"/>
</svg>
